<?xml version="1.0" encoding="UTF-8"?>
<svg id="Layer_1" data-name="Layer 1" xmlns="http://www.w3.org/2000/svg" viewBox="0 0 267 534">
  <defs>
    <style>
      .cls-1 {
        fill: none;
        stroke: #ff1d33;
        stroke-linecap: round;
        stroke-miterlimit: 10;
        stroke-width: 9.19px;
      }

      .cls-2 {
        fill: #92e4e8;
      }

      .cls-2, .cls-3, .cls-4, .cls-5, .cls-6, .cls-7, .cls-8, .cls-9, .cls-10, .cls-11 {
        stroke-width: 0px;
      }

      .cls-4 {
        fill: #48acd3;
      }

      .cls-5 {
        fill: #fff;
      }

      .cls-6 {
        fill: #351515;
      }

      .cls-7 {
        fill: #c4f2f2;
      }

      .cls-8 {
        fill: #e19f76;
      }

      .cls-9 {
        fill: #b0784b;
      }

      .cls-10 {
        fill: #ffc699;
      }

      .cls-11 {
        fill: #1581b7;
      }
    </style>
  </defs>
  <g>
    <path class="cls-5" d="m252.23,421.67c4.56,15.43-49.8,50.53-123.68,50.53-69.02,0-133.3-31.06-126.28-50.53,9.54-26.47,65.49-61.42,124.97-61.42s116.27,31.89,124.98,61.42Z"/>
    <path class="cls-7" d="m1.69,424.76s125.38-88.05,250.66,0c.77-20.72-52.46-61.26-124.09-61.26,0,0-98.03-.75-126.58,61.26Z"/>
    <path class="cls-10" d="m.23,424.76s29.83-76.5,126.84-76.5c104.37,0,126.94,76.5,126.94,76.5,0,0-37.74-61.26-125.74-61.26S.23,424.76.23,424.76Z"/>
    <path class="cls-10" d="m1.62,430.52s39.58,50.01,128.68,50.01c99.2,0,125.06-53.1,125.06-53.1,0,0-32.5,45.92-126.87,45.92S1.62,430.52,1.62,430.52Z"/>
    <path class="cls-2" d="m1.69,424.76s118.65-117.83,250.66,0c-8.43-24.54-53.62-63.62-125.15-65.42,0,0-94.59,2.21-125.51,65.42Z"/>
    <path class="cls-3" d="m255.95,421.68c3.07,12.88-15.39,24.54-24.71,29.97-32.27,17.66-69.69,24.3-106.07,23.46-36.21-1.45-72.74-9.24-104.52-26.99-7.65-4.6-16.74-10.01-20.05-18.83-1.2-3.2-.47-6.88,1.01-9.91,2.56-5.81,6.35-10.84,10.5-15.43,12.52-13.65,28.51-23.68,45.28-31.23,44.96-20.62,98.36-20.11,143.6-.29,21.74,9.64,47.36,25.15,54.96,49.24h0Zm-7.7,2.27c-6.89-19.94-32.1-35.23-50.75-43.5-43.15-19.04-93.86-19.99-137.3-1.2-16.21,6.89-31.98,15.68-44.76,27.91-4.45,4.41-13.89,14.94-11.87,21.25,8.58,23.65,62.77,37.33,85.87,40.48,46.81,6.82,97.08.69,138.3-23.21,6.28-3.8,21.51-14.22,20.51-21.73h0Z"/>
    <circle class="cls-11" cx="126.99" cy="417.29" r="48.87"/>
    <circle class="cls-4" cx="117.93" cy="434.27" r="24.44"/>
    <circle class="cls-4" cx="96.76" cy="394.49" r="5.73"/>
    <circle class="cls-6" cx="127.07" cy="417.95" r="30.31"/>
    <circle class="cls-5" cx="115.69" cy="417.95" r="6.81"/>
    <ellipse class="cls-5" cx="153.51" cy="406.98" rx="10.27" ry="14.68" transform="translate(-275.7 336.43) rotate(-60)"/>
    <path class="cls-3" d="m176.27,368.28s31.04,3.74,44.93-2.25c0,0-14.75,14.47-44.93,2.25Z"/>
    <path class="cls-3" d="m191.12,376.56s35.07,4.62,56.66-2.84c0,0-18.6,18.24-56.66,2.84Z"/>
    <path class="cls-3" d="m215.22,386.55s31.91,5.33,51.55-3.27c0,0-16.92,21.03-51.55,3.27Z"/>
  </g>
  <g>
    <g>
      <path class="cls-1" d="m4.95,126.59c8.69,6.32,14.53,18.12,14.53,31.64s-5.85,25.32-14.54,31.64"/>
      <path class="cls-1" d="m23.2,113.91c12.17,8.85,20.36,25.38,20.36,44.32s-8.19,35.47-20.36,44.32"/>
      <path class="cls-1" d="m41.14,98.48c16.41,11.93,27.45,34.22,27.45,59.74s-11.04,47.82-27.45,59.75"/>
    </g>
    <g>
      <g>
        <path class="cls-10" d="m88.59,154.03s-18.57-87.73,43.75-118.02c66.05-32.09,110.27,14.12,120.76,32.88,9.84,17.58,22.22,57.75-7.12,94.33-29.33,36.59-46.96,41.41-58.49,76.04-11.54,34.63-41.92,62.72-78.26,48.4-36.49-14.39-33.11-55.48-25.78-74.13,7.55-19.2,7.29-30.57,5.13-59.5Z"/>
        <path class="cls-8" d="m130.25,118.57s11.79-26.19,44.1-17.84c10.06,2.6,19.08,8.59,24.55,17.47,7.19,11.68,8.52,27.63-10.1,43.96-27.05,23.73-28.76,24.09-36.57,49.75-2.23,7.18-20.74,21.09-29.28,3.04-4.46-8.83-.54-30.78,9.22-41.43,9.76-10.65,19.2-9.22,21.43-22.19,2.23-12.97-19.73-20.08-22.8-25.88-3.07-5.8-.56-6.9-.56-6.9Z"/>
        <path class="cls-9" d="m131.58,111.67c8.93-16.57,29.59-25.09,47.98-20.64,10.36,2.55,18.97,9.88,24.7,18.6,4.99,7.34,7.56,16.28,6.92,25.42-1.9,18.76-16.62,31.98-30.6,42.65-11.82,8.68-22.26,19.85-27.1,33.88-2,7.49-7.37,14.23-15.39,15.51-10.68,1.51-18.16-5.25-18.93-15.71-.64-8.52,1.83-16.98,5.27-24.59,0,0,.1.04.1.04-2.21,7.88-3.79,16.11-2.44,24.16.78,4.84,3.29,9.77,8.16,11.15,7.07,2.3,15.09-.87,17.84-8.13.9-2.56,1.48-5.35,2.46-7.9,2.99-8.1,7.64-15.53,13.18-22.12,3.68-4.39,7.82-8.43,12.05-12.16,7.84-6.95,15.47-14.78,20.25-23.95,5.94-10.84,4.49-23.07-3.23-32.54-7.31-9.74-17.89-14.33-29.95-11.6-10.1,2.24-19.47,6.37-29.88,9.48,0,0-1.38-1.55-1.38-1.55h0Z"/>
        <path class="cls-9" d="m226.38,110.77c-1.7-20.59-9.19-38.21-29.51-46.16-5.02-2.03-10.43-3.23-15.82-3.95-13.38-1.09-27.97,3.37-36.77,13.55-6.26,7-9.37,16.2-10.23,25.52-.99,9.16.13,18.7,4.99,26.68,1.18,1.95,2.66,3.75,4.38,5.25,12.66,10.99,17.54,21.88,1.29,32.56-4.33,2.67-8.41,5.55-12.09,9.06,0,0-.24-.24-.24-.24,1.73-1.86,3.55-3.64,5.49-5.3,6.55-5.36,18.56-12.5,12.8-22.34-2.41-4.06-6.42-7.13-10.34-9.8-2.32-1.49-4.57-3.28-6.37-5.38-7.62-8.55-8.75-20.32-7.61-31.24,1.67-19.77,13.98-36.7,33.45-42.09,7.73-2.19,15.97-2.84,23.9-1.5,15.52,2.67,31.19,10.62,38.83,24.99,4.89,9.26,7.17,20.26,4.4,30.46,0,0-.55-.07-.55-.07h0Z"/>
        <path class="cls-8" d="m104.05,252.19c4.52,2.68,33.38,18.06,56.96-9.58.13-.15.38-.05.36.15-3.26,26.03-40.93,41.57-57.59,9.71-.09-.18.1-.38.27-.28Z"/>
        <path class="cls-9" d="m248.75,159.92c-10.51,15.76-27.64,28.66-49.39,60.2-4.57,8.54-10.39,18.59-17.85,34.38-8.74,18.49-31.2,42.52-65.37,35.79-19.25-3.79-29.18-20.3-29.42-20.79,32.55,30.27,72.4,17.53,90.04-20.22,13.74-30.91,46.35-71.48,58.34-86.63,19.84-25.07,25.22-50.35,18.82-76.69-12.51-38.61-45.53-52.28-45.53-52.28-69.06-25.24-111.67,29.7-116.08,49,6.67-23.93,27.91-47.31,61.64-55.02,56.04-12.81,89.2,24.02,95.79,34.2.25.34.37.57.36.51,0,.01,0,.02.02.04.56.82,8.06,12.09,11.81,28.92.07.3.13.6.2.9,4.23,18.98,4.19,43.91-13.38,67.69Z"/>
        <path class="cls-9" d="m262.13,92.55c-.06-.3-.13-.6-.2-.9l.13.33s.03.21.07.57Z"/>
      </g>
      <path class="cls-8" d="m115.05,128.66c-.06-.52.62-.76.91-.33,1.9,2.84,5.83,8.38,10.42,12.8,7.31,7.03,5.15,16.37-2.03,20.21-5.14,2.74-10.73,5.94-13.83,8.38-.41.32-.97-.11-.76-.59,7.18-16.74,6-34.4,5.3-40.47Z"/>
      <path class="cls-8" d="m187.54,38.95s47.31,4.86,58.73,48.92c3.65,14.67.46,37.36-19.04,63.11,9.67-15.69,40.28-83.73-39.68-112.03Z"/>
    </g>
  </g>
</svg>