<?xml version="1.0" encoding="UTF-8"?>
<svg id="Layer_1" data-name="Layer 1" xmlns="http://www.w3.org/2000/svg" viewBox="0 0 267 534">
  <defs>
    <style>
      .cls-1 {
        fill: none;
        stroke: #ff1d33;
        stroke-linecap: round;
        stroke-width: 9.19px;
      }

      .cls-1, .cls-2 {
        stroke-miterlimit: 10;
      }

      .cls-3 {
        fill: #48acd3;
      }

      .cls-3, .cls-4, .cls-5, .cls-6, .cls-7, .cls-8 {
        stroke-width: 0px;
      }

      .cls-4 {
        fill: #ffefcc;
      }

      .cls-2 {
        fill: #fff;
        stroke: #3a3a3a;
        stroke-width: 2.95px;
      }

      .cls-5 {
        fill: #e19f76;
      }

      .cls-6 {
        fill: #b0784b;
      }

      .cls-7 {
        fill: #ffc699;
      }

      .cls-8 {
        fill: #1581b7;
      }
    </style>
  </defs>
  <g>
    <g>
      <path class="cls-7" d="m16.05,329.44c-1.98-7.69.82-18.69,14.87-13.82,1.83.63,3.6,1.49,5.3,2.41,14.87,7.98,24.76,12.79,39.83,6.13,7.95-3.52,18.49-8.37,30.1-9.56,22.25-2.27,45.97,4.27,62.07,20.82,2.93,3.01,6.22,6.67,10.44,11.4,12.27,13.44,17.02,23.97,39.75,20.37,10.89-.88,16.18,4.97,17.27,17.34,1.18,13.39-10.09,35.85-4.56,84.13.69,6-5.83,10.28-11.03,7.2-15.59-9.24-39.05-12.45-81.81,22.78,0,0-.01.01-.02.02-12.85,8.76-32.26,18.79-43.66,7.9-.01-.01-.02-.02-.03-.04-2.93-3.61-8.2-12.31-2.13-19.85.55-.69.02-1.7-.85-1.56-6.97,1.11-16.37,1.89-22.58-9.26-5.8-10.42,2.3-20.84,8.29-24.54.64-.4.22-1.38-.52-1.24-13.16,2.51-25.37,4.94-31.83-9.84-4.19-11.28,5.19-19.8,12.48-25.35.55-.42,0-1.26-.6-.93-13.37,7.39-40.75,19.11-53.13-.26-11.11-17.37,4.96-33.02,21.04-37.04,20.38-5.67,24.34-5.23,45.59-16.8,12.23-6.88,22.34-13.01,27.91-12.71-12.89,0-48.2,34.65-76.78-6.11-2.47-3.52-4.34-7.41-5.41-11.58Z"/>
      <path class="cls-6" d="m227.69,371.11c.21.08.42-.06.4-.28-.17-1.37-1.81-5.11-15.28-3.01-9.74,1.23-18.23-1.18-32.49-19.14-8.85-9.81-21.87-32.52-63.75-34.52-19.38-1.01-31.41,6.35-46.48,12.11-4.77,1.6-15.15,2.39-30.77-6.6-7.66-3.79-8.46-4.9-14.29-5.26,2.26.54,15.19,6.67,31.06,14.43.02,0,.03.02.05.02,13.05,3.9,23.31-1.55,36.66-7.78,13.36-6.24,45.34-7.58,69.26,16.04,17.47,17.25,15.75,26.39,31.13,35.4,14.88,8.72,29.29-3.44,34.5-1.43Z"/>
      <path class="cls-8" d="m233.77,351.77l22.08,2.77c4.51.57,7.46,4.93,6.39,9.35-3.06,12.68-5.81,43.79,4.67,116.95.53,3.71-1.73,7.26-5.33,8.33-8.6,2.56-19.61,4.93-26.74,6.36-4.07.81-8.03-1.78-8.88-5.84-4.41-21.03-15.29-83.75-.38-132.65,1.07-3.51,4.54-5.73,8.18-5.27Z"/>
      <path class="cls-3" d="m231.42,360.87l22.88,2.87c2.27.28,3.71,2.47,3.02,4.58-2.71,8.35-6.39,32.86,3.38,99.93.25,1.68-.76,3.33-2.43,3.87-8.19,2.66-20.41,5.18-26.36,6.33-1.97.38-3.88-.83-4.3-2.72-3.14-14.21-13.99-70.26-.17-112.44.53-1.63,2.23-2.63,3.98-2.41Z"/>
      <ellipse class="cls-2" cx="241.75" cy="459.65" rx="8.82" ry="9.15" transform="translate(-49.86 29.9) rotate(-6.42)"/>
      <path class="cls-4" d="m42.91,322.51c-2.8-1.5-9.35-4.88-13.32-6.39-6.05-2.3-11.96.06-10.7,5.04,1.18,4.68,8.22,9.75,14.9,13.95,1.34.84,3.08.69,4.27-.36,3.03-2.68,3.79-3.98,5.58-6.33,1-1.31,1.91-4.5-.72-5.91Z"/>
      <path class="cls-6" d="m16.46,319.68s-.46,46.81,64.04,33.62c.33-.07.5.39.19.53-9.41,4.37-27.28,13-47.23.79-5.09-3.29-22.5-20.78-17-34.95Z"/>
      <path class="cls-6" d="m96.94,349.13s-2.42-4.23-31.74,13.45c0,0-.01,0-.02.01-8.78,4.28-17.22,8.11-35.73,12.77-14.05,2.92-28.68,11.03-29.42,25.99-.41,11.18,8.52,20.82,18.92,22.49,7.03.76,19.13,1.56,42.11-12.35,16.74-10.79,20.03-1.59,20.03-1.59,0,0,.49-7.71-9.68-7.23,0,0,0,0-.02,0-.16.02-5.79.67-14.85,7.06,0,0,0,0-.01,0-4.04,2.47-28.32,16.09-41.13,9.03-3.62-2.46-12.98-8.54-10.36-21.85,2.63-13.3,22.39-18.67,40.67-22.28,0,0,.01,0,.02,0,5.92-1.53,17.08-5.48,30.65-14.89,5.37-3.18,11.22-7.77,20.56-10.62Z"/>
      <path class="cls-6" d="m71.42,457.49c.12-.31-.27-.55-.47-.29-2.67,3.53-7.66,12.51.73,22.79,4.26,4.74,11.45,7.8,24.26,4.03.79-.23,1.57-.53,2.33-.86,1.82-.79,5.41-2.35,7.68-3.32,0,0-1.34-1.11-10.82.86-6.04,1.26-11.17,1.89-15.62-.52-2.15-1.16-4.43-2.67-5.73-4.74-2.25-3.59-5.22-10.77-2.36-17.95Z"/>
      <path class="cls-6" d="m92.94,486.09s-8.35,7.94,1.41,20.13c3.8,4.23,10.76,6.88,21.62,3.75.71-.2,1.67-.5,2.37-.75,1.66-.6,2.95-1.11,4.98-1.98,0,0-.98-1.11-9.46.65-7.53,1.56-12.33,1.59-18.15-4.49-.13-.14-.26-.29-.36-.46-2.19-3.49-5.39-9.33-2.41-16.84Z"/>
      <path class="cls-6" d="m47.96,423.78c-2.7,3.5-7.8,12.5.6,22.8,0,.01.02.02.03.03,4.59,4.61,10.85,6.77,24.3,4.2.87-.17,1.98-.39,2.85-.55,2.01-.38,2.79-.72,5.5-1.1,0,0-2.53-3.37-9.22-1.86-6.02,1.36-11.17,1.89-15.62-.52-2.15-1.16-4.43-2.67-5.73-4.74-2.25-3.6-5.13-10.79-2.24-17.98.12-.31-.27-.55-.47-.28Z"/>
    </g>
    <path class="cls-5" d="m119.21,329.6c4.22.01,32.99-.72,54.85,40.4,2.1,3.95,5.35,8.17,8.63,11.21,7.12,6.59,15.29,8.24,19.05,8.17,1.34-.02,1.96,1.68.96,2.57-6.48,5.74-25.06,10.17-38.9-5.91,0,0-.02-.02-.02-.03-11.45-15.33-10.36-39.82-44.63-56.12-.15-.07-.11-.29.05-.28Z"/>
    <path class="cls-5" d="m137.52,488.09c6.93-6.77,36.86-33.31,72.58-24.86.29.07.49-.3.26-.49-17.91-14.54-53.67-9.14-73.29,24.99-.16.29.22.59.46.36Z"/>
  </g>
  <g>
    <g>
      <path class="cls-1" d="m4.95,126.59c8.69,6.32,14.53,18.12,14.53,31.64s-5.85,25.32-14.54,31.64"/>
      <path class="cls-1" d="m23.2,113.91c12.17,8.85,20.36,25.38,20.36,44.32s-8.19,35.47-20.36,44.32"/>
      <path class="cls-1" d="m41.14,98.48c16.41,11.93,27.45,34.22,27.45,59.74s-11.04,47.82-27.45,59.75"/>
    </g>
    <g>
      <g>
        <path class="cls-7" d="m88.59,154.03s-18.57-87.73,43.75-118.02c66.05-32.09,110.27,14.12,120.76,32.88,9.84,17.58,22.22,57.75-7.12,94.33-29.33,36.59-46.96,41.41-58.49,76.04-11.54,34.63-41.92,62.72-78.26,48.4-36.49-14.39-33.11-55.48-25.78-74.13,7.55-19.2,7.29-30.57,5.13-59.5Z"/>
        <path class="cls-5" d="m130.25,118.57s11.79-26.19,44.1-17.84c10.06,2.6,19.08,8.59,24.55,17.47,7.19,11.68,8.52,27.63-10.1,43.96-27.05,23.73-28.76,24.09-36.57,49.75-2.23,7.18-20.74,21.09-29.28,3.04-4.46-8.83-.54-30.78,9.22-41.43,9.76-10.65,19.2-9.22,21.43-22.19,2.23-12.97-19.73-20.08-22.8-25.88-3.07-5.8-.56-6.9-.56-6.9Z"/>
        <path class="cls-6" d="m131.58,111.67c8.93-16.57,29.59-25.09,47.98-20.64,10.36,2.55,18.97,9.88,24.7,18.6,4.99,7.34,7.56,16.28,6.92,25.42-1.9,18.76-16.62,31.98-30.6,42.65-11.82,8.68-22.26,19.85-27.1,33.88-2,7.49-7.37,14.23-15.39,15.51-10.68,1.51-18.16-5.25-18.93-15.71-.64-8.52,1.83-16.98,5.27-24.59,0,0,.1.04.1.04-2.21,7.88-3.79,16.11-2.44,24.16.78,4.84,3.29,9.77,8.16,11.15,7.07,2.3,15.09-.87,17.84-8.13.9-2.56,1.48-5.35,2.46-7.9,2.99-8.1,7.64-15.53,13.18-22.12,3.68-4.39,7.82-8.43,12.05-12.16,7.84-6.95,15.47-14.78,20.25-23.95,5.94-10.84,4.48-23.07-3.23-32.54-7.31-9.74-17.89-14.33-29.95-11.6-10.1,2.24-19.47,6.37-29.88,9.48,0,0-1.38-1.55-1.38-1.55h0Z"/>
        <path class="cls-6" d="m226.38,110.77c-1.7-20.59-9.19-38.22-29.51-46.16-5.02-2.03-10.43-3.23-15.82-3.95-13.38-1.09-27.97,3.37-36.77,13.55-6.26,7-9.37,16.2-10.23,25.52-.99,9.16.13,18.7,4.99,26.68,1.18,1.95,2.66,3.75,4.38,5.25,12.66,10.99,17.54,21.88,1.29,32.56-4.33,2.67-8.41,5.55-12.09,9.06,0,0-.24-.24-.24-.24,1.73-1.86,3.55-3.64,5.49-5.3,6.55-5.36,18.56-12.5,12.8-22.34-2.41-4.06-6.42-7.13-10.34-9.8-2.32-1.49-4.57-3.28-6.37-5.38-7.62-8.55-8.75-20.32-7.61-31.24,1.67-19.77,13.98-36.7,33.45-42.09,7.73-2.19,15.97-2.84,23.9-1.5,15.52,2.67,31.19,10.62,38.83,24.99,4.89,9.26,7.17,20.26,4.4,30.46,0,0-.55-.07-.55-.07h0Z"/>
        <path class="cls-5" d="m104.05,252.19c4.52,2.68,33.38,18.06,56.96-9.58.13-.15.38-.05.36.15-3.26,26.03-40.93,41.57-57.59,9.71-.09-.18.1-.38.27-.28Z"/>
        <path class="cls-6" d="m248.75,159.92c-10.51,15.76-27.64,28.66-49.39,60.2-4.57,8.54-10.39,18.59-17.85,34.38-8.74,18.49-31.2,42.52-65.37,35.79-19.25-3.79-29.18-20.3-29.42-20.79,32.55,30.27,72.4,17.53,90.04-20.22,13.74-30.91,46.35-71.48,58.34-86.63,19.84-25.07,25.22-50.35,18.82-76.69-12.51-38.61-45.53-52.28-45.53-52.28-69.06-25.24-111.67,29.7-116.08,49,6.67-23.93,27.91-47.31,61.64-55.02,56.04-12.81,89.2,24.02,95.79,34.2.25.34.37.57.36.51,0,.01,0,.02.02.04.56.82,8.06,12.09,11.81,28.92.07.3.13.6.2.9,4.23,18.98,4.19,43.91-13.38,67.69Z"/>
        <path class="cls-6" d="m262.13,92.55c-.06-.3-.13-.6-.2-.9l.13.33s.03.21.07.57Z"/>
      </g>
      <path class="cls-5" d="m115.05,128.66c-.06-.52.62-.76.91-.33,1.9,2.84,5.83,8.38,10.42,12.8,7.31,7.03,5.15,16.37-2.03,20.21-5.14,2.74-10.73,5.94-13.83,8.38-.41.32-.97-.11-.76-.59,7.18-16.74,6-34.4,5.3-40.47Z"/>
      <path class="cls-5" d="m187.54,38.95s47.31,4.86,58.73,48.92c3.65,14.67.46,37.36-19.04,63.11,9.67-15.69,40.28-83.73-39.68-112.03Z"/>
    </g>
  </g>
</svg>