<?xml version="1.0" encoding="UTF-8"?>
<svg id="Layer_1" data-name="Layer 1" xmlns="http://www.w3.org/2000/svg" viewBox="0 0 267 267">
  <defs>
    <style>
      .cls-1 {
        fill: #e19f76;
      }

      .cls-1, .cls-2, .cls-3 {
        stroke-width: 0px;
      }

      .cls-4 {
        fill: none;
        stroke: #ff1d33;
        stroke-linecap: round;
        stroke-miterlimit: 10;
        stroke-width: 9.16px;
      }

      .cls-2 {
        fill: #b0784b;
      }

      .cls-3 {
        fill: #ffc699;
      }
    </style>
  </defs>
  <g>
    <path class="cls-4" d="m6.04,102.24c8.67,6.29,14.5,18.05,14.5,31.51s-5.83,25.22-14.5,31.51"/>
    <path class="cls-4" d="m24.23,89.61c12.14,8.81,20.31,25.28,20.31,44.14s-8.17,35.33-20.31,44.14"/>
    <path class="cls-4" d="m42.13,74.25c16.37,11.88,27.38,34.08,27.38,59.5s-11.01,47.62-27.38,59.5"/>
  </g>
  <g>
    <g>
      <path class="cls-3" d="m89.86,129.31s-18.56-87.57,43.74-117.79c66.02-32.03,110.23,14.1,120.72,32.82,9.83,17.55,22.21,57.64-7.12,94.15-29.33,36.52-46.94,41.33-58.48,75.9-11.53,34.57-41.91,62.6-78.23,48.3-36.48-14.36-33.1-55.37-25.77-73.99,7.54-19.17,7.29-30.51,5.13-59.39Z"/>
      <path class="cls-1" d="m131.52,93.92s11.78-26.15,44.09-17.8c10.06,2.6,19.08,8.57,24.54,17.44,7.18,11.66,8.52,27.57-10.1,43.88-27.04,23.69-28.75,24.04-36.55,49.66-2.23,7.16-20.74,21.05-29.27,3.03-4.46-8.81-.54-30.72,9.21-41.35,9.76-10.63,19.19-9.2,21.42-22.15,2.23-12.95-19.72-20.05-22.79-25.83-3.07-5.78-.56-6.89-.56-6.89Z"/>
      <path class="cls-2" d="m132.85,87.04c8.93-16.54,29.56-25.03,47.92-20.62,18.62,4.78,33.16,24.61,31.64,43.92-1.18,12.82-8.72,23.03-17.49,31.57-7.9,7.94-17.61,13.47-25.26,21.51-7.03,7.1-12.59,15.68-15.57,25.23-2.08,6.68-7.63,12.46-14.73,13.59-10.66,1.52-18.16-5.22-18.94-15.66-.65-8.51,1.82-16.96,5.27-24.56-1.16,5.15-2.66,10.81-2.8,16.19-.29,7.09.88,16.71,8.64,19.09,9.29,2.72,17.14-2.4,18.96-11.92,2.75-9.68,8.06-18.51,14.51-26.18,3.68-4.38,7.82-8.41,12.04-12.14,7.83-6.94,15.46-14.76,20.23-23.9,7.44-13.6,2.94-27.78-8.09-37.7-6.99-6.39-15.88-8.33-25.11-6.32-10.1,2.24-19.45,6.35-29.85,9.45,0,0-1.38-1.55-1.38-1.55h0Z"/>
      <path class="cls-2" d="m227.62,86.14c-1.7-20.57-9.21-38.15-29.51-46.08-5.01-2.03-10.42-3.22-15.8-3.93-13.36-1.08-27.95,3.35-36.75,13.5-6.26,6.98-9.38,16.16-10.24,25.47-1,9.12.13,18.7,4.98,26.64,1.18,1.95,2.66,3.75,4.38,5.24,12.66,10.97,17.54,21.85,1.29,32.51-4.33,2.66-8.4,5.54-12.08,9.04,0,0-.24-.24-.24-.24,1.73-1.86,3.55-3.63,5.49-5.28,6.54-5.35,18.56-12.47,12.8-22.29-2.41-4.06-6.42-7.11-10.34-9.78-2.32-1.49-4.57-3.28-6.37-5.37-7.62-8.53-8.75-20.3-7.6-31.21,1.68-19.75,14-36.63,33.46-42,7.72-2.18,15.95-2.83,23.87-1.49,15.5,2.67,31.16,10.58,38.81,24.93,4.89,9.24,7.18,20.23,4.41,30.43,0,0-.55-.07-.55-.07h0Z"/>
      <path class="cls-1" d="m105.32,227.29c4.52,2.67,33.37,18.02,56.94-9.56.13-.15.38-.05.36.15-3.26,25.98-40.92,41.49-57.57,9.69-.09-.18.1-.38.27-.28Z"/>
      <path class="cls-2" d="m249.98,135.19c-10.51,15.73-27.63,28.61-49.37,60.08-4.57,8.52-10.38,18.55-17.85,34.32-8.74,18.46-31.19,42.44-65.35,35.73-19.24-3.79-29.17-20.26-29.41-20.75,32.54,30.21,72.38,17.5,90.01-20.19,13.73-30.86,46.34-71.35,58.32-86.46,19.83-25.02,25.21-50.26,18.82-76.55-12.51-38.53-45.52-52.18-45.52-52.18-69.04-25.19-111.63,29.64-116.04,48.91,6.67-23.88,27.9-47.22,61.62-54.92,56.02-12.78,89.17,23.97,95.76,34.14.25.34.37.57.36.51,0,.01,0,.02.02.04.56.82,8.06,12.07,11.8,28.86.07.3.13.6.2.9,4.23,18.94,4.19,43.82-13.37,67.56Z"/>
      <path class="cls-2" d="m263.35,67.95c-.06-.3-.13-.6-.2-.9l.13.33s.03.21.07.57Z"/>
    </g>
    <path class="cls-1" d="m116.32,104c-.06-.52.62-.76.91-.33,1.9,2.84,5.83,8.37,10.42,12.78,7.31,7.02,5.15,16.34-2.03,20.17-5.14,2.74-10.73,5.93-13.83,8.36-.41.32-.97-.11-.76-.59,7.17-16.7,5.99-34.33,5.29-40.4Z"/>
    <path class="cls-1" d="m188.78,14.45s47.3,4.85,58.71,48.83c3.64,14.64.46,37.29-19.04,62.99,9.66-15.66,40.26-83.57-39.67-111.82Z"/>
  </g>
</svg>