<?xml version="1.0" encoding="UTF-8"?>
<svg id="Layer_1" data-name="Layer 1" xmlns="http://www.w3.org/2000/svg" viewBox="0 0 267 267">
  <defs>
    <style>
      .cls-1 {
        fill: #92e4e8;
      }

      .cls-1, .cls-2, .cls-3, .cls-4, .cls-5, .cls-6, .cls-7, .cls-8 {
        stroke-width: 0px;
      }

      .cls-3 {
        fill: #48acd3;
      }

      .cls-4 {
        fill: #fff;
      }

      .cls-5 {
        fill: #351515;
      }

      .cls-6 {
        fill: #c4f2f2;
      }

      .cls-7 {
        fill: #ffc699;
      }

      .cls-8 {
        fill: #1581b7;
      }
    </style>
  </defs>
  <path class="cls-4" d="m252.23,140.78c4.56,15.43-49.8,50.53-123.68,50.53-69.02,0-133.3-31.06-126.28-50.53,9.54-26.47,65.49-61.42,124.97-61.42s116.27,31.89,124.98,61.42Z"/>
  <path class="cls-6" d="m1.69,143.87s125.38-88.05,250.66,0c.77-20.72-52.46-61.26-124.09-61.26,0,0-98.03-.75-126.58,61.26Z"/>
  <path class="cls-7" d="m.23,143.87s29.83-76.5,126.84-76.5c104.37,0,126.94,76.5,126.94,76.5,0,0-37.74-61.26-125.74-61.26S.23,143.87.23,143.87Z"/>
  <path class="cls-7" d="m1.62,149.62s39.58,50.01,128.68,50.01c99.2,0,125.06-53.1,125.06-53.1,0,0-32.5,45.92-126.87,45.92S1.62,149.62,1.62,149.62Z"/>
  <path class="cls-1" d="m1.69,143.87s118.65-117.83,250.66,0c-8.43-24.54-53.62-63.62-125.15-65.42,0,0-94.59,2.21-125.51,65.42Z"/>
  <path class="cls-2" d="m255.95,140.79c3.07,12.88-15.39,24.54-24.71,29.97-32.27,17.66-69.69,24.3-106.07,23.46-36.21-1.44-72.74-9.24-104.52-26.99-7.65-4.6-16.74-10.01-20.05-18.83-1.2-3.2-.47-6.88,1.01-9.91,2.56-5.81,6.35-10.84,10.5-15.43,12.52-13.65,28.51-23.68,45.28-31.23,44.96-20.62,98.36-20.11,143.6-.29,21.74,9.64,47.36,25.15,54.96,49.24h0Zm-7.7,2.27c-6.89-19.94-32.1-35.23-50.75-43.5-43.15-19.04-93.86-19.99-137.3-1.2-16.21,6.89-31.98,15.68-44.76,27.91-4.45,4.41-13.89,14.94-11.87,21.25,8.58,23.65,62.77,37.33,85.87,40.48,46.81,6.82,97.08.69,138.3-23.21,6.28-3.8,21.51-14.22,20.51-21.73h0Z"/>
  <circle class="cls-8" cx="126.99" cy="136.4" r="48.87"/>
  <circle class="cls-3" cx="117.93" cy="153.38" r="24.44"/>
  <circle class="cls-3" cx="96.76" cy="113.59" r="5.73"/>
  <circle class="cls-5" cx="127.07" cy="137.06" r="30.31"/>
  <circle class="cls-4" cx="115.69" cy="137.06" r="6.81"/>
  <ellipse class="cls-4" cx="153.51" cy="126.09" rx="10.27" ry="14.68" transform="translate(-32.44 195.98) rotate(-60)"/>
  <path class="cls-2" d="m176.27,87.38s31.04,3.74,44.93-2.25c0,0-14.75,14.47-44.93,2.25Z"/>
  <path class="cls-2" d="m191.12,95.67s35.07,4.62,56.66-2.84c0,0-18.6,18.24-56.66,2.84Z"/>
  <path class="cls-2" d="m215.22,105.66s31.91,5.33,51.55-3.27c0,0-16.92,21.03-51.55,3.27Z"/>
</svg>