<?xml version="1.0" encoding="UTF-8"?>
<svg id="Layer_1" data-name="Layer 1" xmlns="http://www.w3.org/2000/svg" viewBox="0 0 267 267">
  <defs>
    <style>
      .cls-1 {
        fill: #48acd3;
      }

      .cls-1, .cls-2, .cls-3, .cls-4, .cls-5, .cls-6 {
        stroke-width: 0px;
      }

      .cls-2 {
        fill: #ffefcc;
      }

      .cls-7 {
        fill: #fff;
        stroke: #3a3a3a;
        stroke-miterlimit: 10;
        stroke-width: 2.95px;
      }

      .cls-3 {
        fill: #e19f76;
      }

      .cls-4 {
        fill: #b0784b;
      }

      .cls-5 {
        fill: #ffc699;
      }

      .cls-6 {
        fill: #1581b7;
      }
    </style>
  </defs>
  <g>
    <path class="cls-5" d="m16.05,50.24c-1.98-7.69.82-18.69,14.87-13.82,1.83.63,3.6,1.49,5.3,2.41,14.87,7.98,24.76,12.79,39.83,6.13,7.95-3.52,18.49-8.37,30.1-9.56,22.25-2.27,45.97,4.27,62.07,20.82,2.93,3.01,6.22,6.67,10.44,11.4,12.27,13.44,17.02,23.97,39.75,20.37,10.89-.88,16.18,4.97,17.27,17.34,1.18,13.39-10.09,35.85-4.56,84.13.69,6-5.83,10.28-11.03,7.2-15.59-9.24-39.05-12.45-81.81,22.78,0,0-.01.01-.02.02-12.85,8.76-32.26,18.79-43.66,7.9-.01-.01-.02-.02-.03-.04-2.93-3.61-8.2-12.31-2.13-19.85.55-.69.02-1.7-.85-1.56-6.97,1.11-16.37,1.89-22.58-9.26-5.8-10.42,2.3-20.84,8.29-24.54.64-.4.22-1.38-.52-1.24-13.16,2.51-25.37,4.94-31.83-9.84-4.19-11.28,5.19-19.8,12.48-25.35.55-.42,0-1.26-.6-.93-13.37,7.39-40.75,19.11-53.13-.26-11.11-17.37,4.96-33.02,21.04-37.04,20.38-5.67,24.34-5.23,45.59-16.8,12.23-6.88,22.34-13.01,27.91-12.71-12.89,0-48.2,34.65-76.78-6.11-2.47-3.52-4.34-7.41-5.41-11.58Z"/>
    <path class="cls-4" d="m227.69,91.91c.21.08.42-.06.4-.28-.17-1.37-1.81-5.11-15.28-3.01-9.74,1.23-18.23-1.18-32.49-19.14-8.85-9.81-21.87-32.52-63.75-34.52-19.38-1.01-31.41,6.35-46.48,12.11-4.77,1.6-15.15,2.39-30.77-6.6-7.66-3.79-8.46-4.9-14.29-5.26,2.26.54,15.19,6.67,31.06,14.43.02,0,.03.02.05.02,13.05,3.9,23.31-1.55,36.66-7.78,13.36-6.24,45.34-7.58,69.26,16.04,17.47,17.25,15.75,26.39,31.13,35.4s29.29-3.44,34.5-1.43Z"/>
    <path class="cls-6" d="m233.77,72.57l22.08,2.77c4.51.57,7.46,4.93,6.39,9.35-3.06,12.68-5.81,43.79,4.67,116.95.53,3.71-1.73,7.26-5.33,8.33-8.6,2.56-19.61,4.93-26.74,6.36-4.07.81-8.03-1.78-8.88-5.84-4.41-21.03-15.29-83.75-.38-132.65,1.07-3.51,4.54-5.73,8.18-5.27Z"/>
    <path class="cls-1" d="m231.42,81.67l22.88,2.87c2.27.28,3.71,2.47,3.02,4.58-2.71,8.35-6.39,32.86,3.38,99.93.25,1.68-.76,3.33-2.43,3.87-8.19,2.66-20.41,5.18-26.36,6.33-1.97.38-3.88-.83-4.3-2.72-3.14-14.21-13.99-70.26-.17-112.44.53-1.63,2.23-2.63,3.98-2.41Z"/>
    <ellipse class="cls-7" cx="241.75" cy="180.45" rx="8.82" ry="9.15" transform="translate(-18.65 28.15) rotate(-6.42)"/>
    <path class="cls-2" d="m42.91,43.3c-2.8-1.5-9.35-4.88-13.32-6.39-6.05-2.3-11.96.06-10.7,5.04,1.18,4.68,8.22,9.75,14.9,13.95,1.34.84,3.08.69,4.27-.36,3.03-2.68,3.79-3.98,5.58-6.33,1-1.31,1.91-4.5-.72-5.91Z"/>
    <path class="cls-4" d="m16.46,40.48s-.46,46.81,64.04,33.62c.33-.07.5.39.19.53-9.41,4.37-27.28,13-47.23.79-5.09-3.29-22.5-20.78-17-34.95Z"/>
    <path class="cls-4" d="m96.94,69.92s-2.42-4.23-31.74,13.45c0,0-.01,0-.02.01-8.78,4.28-17.22,8.11-35.73,12.77C15.39,99.08.77,107.19.03,122.15c-.41,11.18,8.52,20.82,18.92,22.49,7.03.76,19.13,1.56,42.11-12.35,16.74-10.79,20.03-1.59,20.03-1.59,0,0,.49-7.71-9.68-7.23,0,0,0,0-.02,0-.16.02-5.79.67-14.85,7.06,0,0,0,0-.01,0-4.04,2.47-28.32,16.09-41.13,9.03-3.62-2.46-12.98-8.54-10.36-21.85,2.63-13.3,22.39-18.67,40.67-22.28,0,0,.01,0,.02,0,5.92-1.53,17.08-5.48,30.65-14.89,5.37-3.18,11.22-7.77,20.56-10.62Z"/>
    <path class="cls-4" d="m71.42,178.29c.12-.31-.27-.55-.47-.29-2.67,3.53-7.66,12.51.73,22.79,4.26,4.74,11.45,7.8,24.26,4.03.79-.23,1.57-.53,2.33-.86,1.82-.79,5.41-2.35,7.68-3.32,0,0-1.34-1.11-10.82.86-6.04,1.26-11.17,1.89-15.62-.52-2.15-1.16-4.43-2.67-5.73-4.74-2.25-3.59-5.22-10.77-2.36-17.95Z"/>
    <path class="cls-4" d="m92.94,206.88s-8.35,7.94,1.41,20.13c3.8,4.23,10.76,6.88,21.62,3.75.71-.2,1.67-.5,2.37-.75,1.66-.6,2.95-1.11,4.98-1.98,0,0-.98-1.11-9.46.65-7.53,1.56-12.33,1.59-18.15-4.49-.13-.14-.26-.29-.36-.46-2.19-3.49-5.39-9.33-2.41-16.84Z"/>
    <path class="cls-4" d="m47.96,144.57c-2.7,3.5-7.8,12.5.6,22.8,0,.01.02.02.03.03,4.59,4.61,10.85,6.77,24.3,4.2.87-.17,1.98-.39,2.85-.55,2.01-.38,2.79-.72,5.5-1.1,0,0-2.53-3.37-9.22-1.86-6.02,1.36-11.17,1.89-15.62-.52-2.15-1.16-4.43-2.67-5.73-4.74-2.25-3.6-5.13-10.79-2.24-17.98.12-.31-.27-.55-.47-.28Z"/>
  </g>
  <path class="cls-3" d="m119.21,50.4c4.22.01,32.99-.72,54.85,40.4,2.1,3.95,5.35,8.17,8.63,11.21,7.12,6.59,15.29,8.24,19.05,8.17,1.34-.02,1.96,1.68.96,2.57-6.48,5.74-25.06,10.17-38.9-5.91,0,0-.02-.02-.02-.03-11.45-15.33-10.36-39.82-44.63-56.12-.15-.07-.11-.29.05-.28Z"/>
  <path class="cls-3" d="m137.52,208.89c6.93-6.77,36.86-33.31,72.58-24.86.29.07.49-.3.26-.49-17.91-14.54-53.67-9.14-73.29,24.99-.16.29.22.59.46.36Z"/>
</svg>