<?xml version="1.0" encoding="UTF-8"?>
<svg id="Layer_1" data-name="Layer 1" xmlns="http://www.w3.org/2000/svg" xmlns:xlink="http://www.w3.org/1999/xlink" viewBox="0 0 267 267">
  <defs>
    <style>
      .cls-1 {
        fill: url(#linear-gradient);
      }

      .cls-1, .cls-2, .cls-3 {
        stroke-width: 0px;
      }

      .cls-2 {
        fill: #e19f76;
      }

      .cls-3 {
        fill: #b0784b;
      }
    </style>
    <linearGradient id="linear-gradient" x1="131.57" y1="8.2" x2="133.11" y2="164.93" gradientUnits="userSpaceOnUse">
      <stop offset="0" stop-color="#fff"/>
      <stop offset=".21" stop-color="#ffe9d9"/>
      <stop offset=".39" stop-color="#ffdcc0"/>
      <stop offset=".5" stop-color="#ffd7b8"/>
      <stop offset=".8" stop-color="#ffcaa1"/>
      <stop offset="1" stop-color="#ffc699"/>
    </linearGradient>
  </defs>
  <path class="cls-1" d="m213.97,234.78c-4.12,9.13-9.67,11.24-15.41,14.27-3.39,1.79-6.91,2.78-9.76,2.27-.03,0-.06,0-.09,0-8.82-1.68-14.88-2.18-23.48.91-2.65.95-5.06,2.22-7.41,3.56-4.87,2.75-9.49,5.77-15.41,6.74-8.72,1.43-18.46,1-26.57-2.81-1.74-.81-3.38-1.78-5.02-2.77-2.86-1.74-5.68-3.55-8.9-4.71-8.11-2.93-13.98-2.64-22.04-1.18-.47.08-.95.18-1.44.26-1.25.24-2.63.19-4.08-.11-7.41-1.47-16.2-6.41-19.6-15.45-4.06-10.79-6.1-16.37-.49-31.68,5.41-14.76,19.01-32.92,23.96-47.91,9.74-29.52,18.36-60.84,22.39-91.6,2.06-15.74.03-32.17,8.86-46.28,7.44-11.89,21.15-17.99,34.9-12.94,19.1,7.02,19.63,26.5,20.85,44.01,2.51,36.51,12.26,72.19,23.67,106.81,4.95,14.99,16.65,31.28,22.73,45.85,4.47,10.74,7.07,22.24,2.33,32.75Z"/>
  <path class="cls-2" d="m199.21,249.15c-3.47,1.64-6.69,2.42-9.65,2.28-.03,0-.25-.03-.28-.04-8.82-1.68-14.83-2.51-23.42.59-2.65.95-5.06,2.22-7.41,3.56-4.87,2.75-9.33,5.58-15.18,6.9-7.71,1.75-18.8,1.29-26.91-2.52-1.74-.81-3.45-1.72-5.09-2.71-2.86-1.74-5.73-3.69-8.94-4.86-8.11-2.93-13.7-2.89-21.75-1.43-.47.08-1.03.19-1.52.28-1.25.24-2.04.41-4.01.13-4.95-5.68-12.79-17.05-2.55-20.34,14-4.51,30.57,5.66,45.11,15.76,9.59,6.67,26.36,6.17,35.35,0,8.21-5.63,25.02-20.68,41.7-17.69,12.73,2.29,8.58,13.86,4.55,20.09Z"/>
  <path class="cls-3" d="m111.17,257.23c-3.18-1.91-6.13-3.81-9.34-4.98-8.11-2.93-13.2-2.66-21.35-1.31-3.95-4.55-15.74-19.67,2.02-18.82,19.76.96,30.91,20.2,28.68,25.11Z"/>
  <path class="cls-3" d="m189.39,251.4s-.06,0-.09,0c-8.85-1.6-14.69-2.36-23.45.59-2.66.9-5.06,2.22-7.41,3.56-.41-6.17,10.69-22.54,29.13-23.44,18.15-.87,5.49,15.13,1.81,19.3Z"/>
  <path class="cls-3" d="m189.56,251.43c12.39-.23,20.4-11.53,23.63-22.32,3.05-8.45.06-17.27-3-25.43-5.22-13.18-12.37-26.11-19.32-38.57-13.98-24.43-18.77-52.69-22.57-80.18-1.98-15.19-3.62-31.9-5.19-47.19-.46-5.26-.97-10.47-1.98-15.66,1.51,5.06,2.43,10.29,3.24,15.5,2.49,15.6,4.57,31.3,7.24,46.85,4.7,26.89,10.28,54.21,23.17,78.48,7.01,12.73,14.05,25.6,19.38,39.23,3.85,9.91,7.15,22.24,1.07,32.08-5.07,9.45-14.71,16.97-25.66,17.21h0Z"/>
  <path class="cls-3" d="m77.88,251.37c-16.93.19-29.33-17.3-29.5-33.18.11-16.66,10.64-30.42,17.92-44.54,5.05-9.2,8.86-18.86,12.37-28.72,3.56-9.87,6.78-19.87,9.67-29.95,4.29-15.14,7.85-30.56,10.25-46.12.83-5.12,2.89-18.4,3.5-23.48,1.08-7.86,2.82-15.61,4.41-23.37-.93,9.2-2.36,18.29-3.02,27.5-.72,7.89-1.94,15.79-2.76,23.65,0,0-.54,3.94-.54,3.94-4.2,28.86-11.53,57.39-22.75,84.35-4.14,9.83-9.7,19-14.9,28.21-4.93,8.86-9.95,18.29-9.98,28.54-.02,4.38,1.09,8.67,2.35,12.86,3.08,10.45,11.09,20.58,22.98,20.35h0Z"/>
  <path class="cls-2" d="m166.36,110.94c8.41,38.48,14.85,59.6,21.68,80.85,4.99,15.43,4.7,28.57-14.09,29.26-.51.02-.7-.67-.26-.92,3.43-1.94,10.3-5.03,9.67-15.41-.4-6.57-11.27-46.53-17.95-93.54-.09-.62.82-.85.95-.24Z"/>
  <path class="cls-2" d="m75.37,214.22s-9.07,7.19-8.73,4.25,4.11-10.73,7.48-19.51c16.14-42.03,21.05-63.43,25.49-83.06,4.23-18.7,8.75-58.94,9.99-65.7,1.21-6.59,1.46-1.71,1.38.25-.08,1.96-5.5,58.24-7.16,69.08-1.67,10.84-7.71,59.51-12.31,71.18-4.04,10.25-12.13,20.01-16.14,23.51Z"/>
  <path class="cls-2" d="m119.96,233.46c-.47-.27-.21-.98.33-.9,5.42.8,18.62,1.74,27.76-5.84,9.49-7.88,9.65-22.52,9.36-27.86-.03-.52.66-.72.91-.27,2.25,4.01,6.85,14.37,2.15,25.46-6.05,14.25-19.24,14.48-26.99,14.06-5.29-.28-10.64-2.96-13.52-4.64Z"/>
</svg>